<svg width="30" height="30" viewBox="0 0 30 30" fill="none" xmlns="http://www.w3.org/2000/svg">
<path d="M27.19 18.7526C25.7042 19.3725 24.1099 19.6903 22.5 19.6876C19.2677 19.6876 16.1677 18.4035 13.8821 16.1179C11.5965 13.8323 10.3125 10.7324 10.3125 7.50006C10.3125 5.83756 10.645 4.25381 11.2475 2.81006C9.02654 3.73604 7.12939 5.29874 5.79515 7.30121C4.46091 9.30368 3.7493 11.6563 3.75 14.0626C3.75 17.2949 5.03404 20.3948 7.31964 22.6804C9.60524 24.966 12.7052 26.2501 15.9375 26.2501C18.3438 26.2508 20.6964 25.5391 22.6989 24.2049C24.7013 22.8707 26.264 20.9735 27.19 18.7526Z" stroke="#DBDBDB" stroke-width="1.5" stroke-linecap="round" stroke-linejoin="round"/>
</svg>
