<svg width="30" height="30" viewBox="0 0 30 30" fill="none" xmlns="http://www.w3.org/2000/svg">
<path d="M3.4375 17.5H26.5625M11.3875 22.2263V24.0625C11.3875 24.7255 11.1241 25.3614 10.6553 25.8303C10.1864 26.2991 9.55054 26.5625 8.8875 26.5625H8.1375M18.6125 22.2263V24.0625C18.6125 24.7255 18.8759 25.3614 19.3447 25.8303C19.8136 26.2991 20.4495 26.5625 21.1125 26.5625H21.8625M8.135 26.5625H21.865M3.4375 7.8125C3.4375 6.65218 3.89844 5.53938 4.71891 4.71891C5.53938 3.89844 6.65218 3.4375 7.8125 3.4375H22.1875C23.3478 3.4375 24.4606 3.89844 25.2811 4.71891C26.1016 5.53938 26.5625 6.65218 26.5625 7.8125V17.8513C26.5625 19.0116 26.1016 20.1244 25.2811 20.9448C24.4606 21.7653 23.3478 22.2263 22.1875 22.2263H7.8125C6.65218 22.2263 5.53938 21.7653 4.71891 20.9448C3.89844 20.1244 3.4375 19.0116 3.4375 17.8513V7.8125Z" stroke="#DBDBDB" stroke-width="1.5" stroke-linecap="round" stroke-linejoin="round"/>
</svg>
