<svg  xmlns="http://www.w3.org/2000/svg" style="display: none;">

<symbol viewBox="0 0 11 20" id="facebook-icon">
<path d="M10.2792 11.25L10.8496 7.63047H7.28306V5.28164C7.28306 4.29141 7.78127 3.32617 9.3786 3.32617H11V0.244531C11 0.244531 9.52863 0 8.12184 0C5.18471 0 3.26486 1.73359 3.26486 4.87187V7.63047H0V11.25H3.26486V20H7.28306V11.25H10.2792Z" fill="currentColor"/>
</symbol>

<symbol viewBox="0 0 24 20" id="twitter-icon">
<path d="M21.5331 4.98436C21.5483 5.2031 21.5483 5.42188 21.5483 5.64062C21.5483 12.3125 16.5991 20 7.55333 20C4.7665 20 2.17768 19.1718 0 17.7344C0.395955 17.7812 0.776628 17.7969 1.18782 17.7969C3.48728 17.7969 5.60407 17 7.29444 15.6406C5.13199 15.5938 3.31979 14.1406 2.69542 12.1406C3.00001 12.1875 3.30456 12.2187 3.62439 12.2187C4.066 12.2187 4.50766 12.1562 4.9188 12.0469C2.66499 11.5781 0.974582 9.54687 0.974582 7.09374V7.03126C1.62938 7.40627 2.39087 7.64064 3.19792 7.67185C1.87304 6.76558 1.00505 5.21873 1.00505 3.46871C1.00505 2.53123 1.24866 1.67186 1.67508 0.921852C4.09642 3.98435 7.73605 5.98432 11.8172 6.2031C11.7411 5.8281 11.6954 5.43752 11.6954 5.04688C11.6954 2.2656 13.8883 0 16.6142 0C18.0304 0 19.3096 0.609373 20.2081 1.59375C21.3198 1.37501 22.3858 0.953114 23.33 0.375003C22.9644 1.5469 22.1878 2.53128 21.1675 3.15624C22.1574 3.04691 23.1168 2.7656 24 2.37502C23.3301 3.37498 22.4924 4.26557 21.5331 4.98436Z" fill="currentColor"/>
</symbol>

<symbol viewBox="0 0 21 20" id="linkedin-icon">
<path d="M4.70062 20H0.346875V6.64702H4.70062V20ZM2.52141 4.82555C1.12922 4.82555 0 3.72732 0 2.40139C9.96468e-09 1.7645 0.265647 1.1537 0.738503 0.703352C1.21136 0.253003 1.85269 0 2.52141 0C3.19012 0 3.83145 0.253003 4.30431 0.703352C4.77716 1.1537 5.04281 1.7645 5.04281 2.40139C5.04281 3.72732 3.91313 4.82555 2.52141 4.82555ZM20.9953 20H16.6509V13.4999C16.6509 11.9507 16.6181 9.96406 14.3873 9.96406C12.1237 9.96406 11.7769 11.6471 11.7769 13.3882V20H7.42781V6.64702H11.6034V8.46849H11.6644C12.2456 7.41936 13.6655 6.31219 15.7838 6.31219C20.19 6.31219 21 9.07565 21 12.665V20H20.9953Z" fill="currentColor"/>
</symbol>

<symbol viewBox="0 0 21 20" id="instagram-icon">
<path d="M10.5023 4.87225C7.52276 4.87225 5.11941 7.16166 5.11941 10C5.11941 12.8383 7.52276 15.1277 10.5023 15.1277C13.4819 15.1277 15.8853 12.8383 15.8853 10C15.8853 7.16166 13.4819 4.87225 10.5023 4.87225ZM10.5023 13.3337C8.57685 13.3337 7.00273 11.8387 7.00273 10C7.00273 8.16133 8.57217 6.6663 10.5023 6.6663C12.4325 6.6663 14.002 8.16133 14.002 10C14.002 11.8387 12.4278 13.3337 10.5023 13.3337ZM17.361 4.6625C17.361 5.32746 16.7988 5.85853 16.1055 5.85853C15.4074 5.85853 14.8499 5.32299 14.8499 4.6625C14.8499 4.00201 15.4121 3.46647 16.1055 3.46647C16.7988 3.46647 17.361 4.00201 17.361 4.6625ZM20.9262 5.87638C20.8466 4.27424 20.4624 2.85507 19.2303 1.68582C18.0028 0.516568 16.5131 0.150619 14.8312 0.070289C13.0978 -0.0234297 7.90223 -0.0234297 6.16882 0.070289C4.49163 0.146156 3.00184 0.512105 1.76972 1.68136C0.537591 2.85061 0.158115 4.26978 0.0737869 5.87192C-0.0245956 7.52315 -0.0245956 12.4724 0.0737869 14.1236C0.15343 15.7258 0.537591 17.1449 1.76972 18.3142C3.00184 19.4834 4.48695 19.8494 6.16882 19.9297C7.90223 20.0234 13.0978 20.0234 14.8312 19.9297C16.5131 19.8538 18.0028 19.4879 19.2303 18.3142C20.4577 17.1449 20.8419 15.7258 20.9262 14.1236C21.0246 12.4724 21.0246 7.52761 20.9262 5.87638ZM18.6868 15.8953C18.3214 16.7701 17.614 17.4439 16.6911 17.7965C15.309 18.3186 12.0296 18.1981 10.5023 18.1981C8.97507 18.1981 5.69096 18.3142 4.31361 17.7965C3.39537 17.4484 2.68795 16.7745 2.31785 15.8953C1.76972 14.5788 1.89621 11.4549 1.89621 10C1.89621 8.54513 1.7744 5.41671 2.31785 4.10465C2.68327 3.22995 3.39069 2.55606 4.31361 2.2035C5.69565 1.68136 8.97507 1.80185 10.5023 1.80185C12.0296 1.80185 15.3137 1.68582 16.6911 2.2035C17.6093 2.5516 18.3167 3.22548 18.6868 4.10465C19.235 5.42118 19.1085 8.54513 19.1085 10C19.1085 11.4549 19.235 14.5833 18.6868 15.8953Z" fill="currentColor"/>
</symbol>



</svg>
