<svg width="21" height="20" viewBox="0 0 21 20" fill="none" xmlns="http://www.w3.org/2000/svg">
<path d="M4.70062 20H0.346875V6.64702H4.70062V20ZM2.52141 4.82555C1.12922 4.82555 0 3.72732 0 2.40139C9.96468e-09 1.7645 0.265647 1.1537 0.738503 0.703352C1.21136 0.253003 1.85269 0 2.52141 0C3.19012 0 3.83145 0.253003 4.30431 0.703352C4.77716 1.1537 5.04281 1.7645 5.04281 2.40139C5.04281 3.72732 3.91313 4.82555 2.52141 4.82555ZM20.9953 20H16.6509V13.4999C16.6509 11.9507 16.6181 9.96406 14.3873 9.96406C12.1237 9.96406 11.7769 11.6471 11.7769 13.3882V20H7.42781V6.64702H11.6034V8.46849H11.6644C12.2456 7.41936 13.6655 6.31219 15.7838 6.31219C20.19 6.31219 21 9.07565 21 12.665V20H20.9953Z" fill="#DBDBDB"/>
</svg>
